<?xml version="1.0" encoding="utf-8"?>
<!-- Generator: Adobe Illustrator 22.0.0, SVG Export Plug-In . SVG Version: 6.00 Build 0)  -->
<svg version="1.1" id="Capa_1" xmlns="http://www.w3.org/2000/svg" xmlns:xlink="http://www.w3.org/1999/xlink" x="0px" y="0px"
	 viewBox="0 0 489.3 693.7" style="enable-background:new 0 0 489.3 693.7;" xml:space="preserve">
<style type="text/css">
	.st0{fill:#FFFFFF;}
</style>
<path class="st0" d="M0,693.7C0,462.3,0,231.3,0,0c163.1,0,326.1,0,489.3,0c0,231.1,0,462.2,0,693.7
	C326.4,693.7,163.3,693.7,0,693.7z M100.4,344.9c-0.3-0.2-0.7-0.4-1-0.6c-0.6,0.4-1.2,0.7-1.7,1.2c-9,8.1-18.8,15.5-26.9,24.4
	c-21.2,23.2-23.8,50.8-8.6,78.2c6.9,12.4,17.3,20.2,31.4,22.5c35,5.6,69.9,5.9,104.7-1.2c6-1.2,11.4-0.3,17,2.4
	c4,1.9,8.7,3.4,13.2,3.5c14,0.4,28,0.3,42-0.1c3.9-0.1,8.2-1.5,11.7-3.4c5.9-3.3,11.8-4,18.4-2.9c10.1,1.7,20.2,3.3,30.4,4.1
	c21,1.7,41.9-1.1,62.8-3.2c14.6-1.4,25.2-8.6,33.2-20.9c18.6-28.5,15.9-62.6-8-86.8c-6.3-6.5-14-11.6-21.1-17.4
	c-0.7-0.5-1.5-0.9-2.6-1.5c2.7,7.7,5.4,14.8,7.7,22c2,6.1,2.8,12.4,1.4,18.8c-2.7,12.3-17.6,24.6-31.3,26.1c-8.9,1-17-1.4-25-4.9
	c-14.8-6.4-29.5-13-44.5-18.7c-13.4-5.1-23.1-2-32.4,9c-0.7,0.9-1.4,1.8-2.1,2.6c-12.3,15.4-31.7,14.8-43-1.2
	c-3.1-4.5-7.3-7.5-12.4-9.3c-7.7-2.7-15.3-2.1-22.6,1.1c-14.3,6.2-28.8,12.1-42.9,18.7c-17.3,8-33.1,5.2-47.7-6.1
	c-8.4-6.5-12.2-15.5-10-25.8c2-9.1,5.7-17.8,8.6-26.6C99.5,347.5,99.9,346.2,100.4,344.9z M452,38c-138,0-275.7,0-413.6,0
	c0,38.4,0,76.5,0,115.8c1.2-2.3,2-3.5,2.6-4.8c10-19.2,23.2-36,40.2-49.4c42.3-33.4,91.1-50.1,144.3-54.7c30.2-2.6,60.2,0,89.8,6
	c35.5,7.2,67.8,21.3,95.7,44.7c15,12.6,27.1,27.6,38,43.7c0.8,1.1,1.7,2.2,3,3.9C452,107.6,452,73,452,38z M38.2,656
	c1.6,0,2.8,0,4.1,0c41.4,0,82.7,0,124.1,0c0.7,0,1.5,0,2.2,0c2.2-0.1,3-0.9,1.7-3c-6.7-10.6-13.6-20.9-23.6-28.8
	c-9.2-7.2-18.3-14.8-26.6-23c-20.5-20.2-33.8-44.3-38.1-73.1c-1.3-8.6-2-17.4-4.2-25.8c-6.4-25.1-21.2-45.2-38.8-63.5
	c-0.1-0.1-0.4,0.1-0.7,0.1C38.2,511,38.2,583.2,38.2,656z M451.9,437.8c-0.3-0.1-0.5-0.3-0.8-0.4c-4.1,5.6-8.3,11.2-12.2,17
	c-13.8,20.4-23.3,42.5-25.5,67.2c-2.9,32-16.5,58.6-40.1,80c-10.2,9.2-20.6,18.2-31.1,27.1c-8.2,6.9-12.6,16.1-17.1,25.9
	c42.6,0,84.6,0,126.8,0C451.9,582.1,451.9,509.9,451.9,437.8z M160.7,480.3c23,31.6,53.5,45.9,91.4,44.9
	c35.8-0.9,64.1-15.6,84.7-46.2c-11.5-1-22.2-2.1-33-2.9c-1.8-0.1-3.7,0.5-5.4,1.1c-33,13-66,12.4-99.1,0.3c-1.6-0.6-3.4-1.3-5-1.2
	C183.3,477.5,172.5,478.9,160.7,480.3z M216.9,265.5c5.8,0,9-1.9,10.8-5.2c2.7-5,4.9-10.3,6.9-15.7c1.8-4.7-1.9-12.1-6.6-14.2
	c-4.9-2.2-9.9-4.4-14.3-7.3c-8.4-5.4-16.4-11.4-24.6-17.1c-15.4-10.8-32.3-14.7-50.9-11.2c-17.8,3.4-33.4,11.5-47.8,22.3
	c-4.6,3.4-6.5,8.8-7.9,14.1c-0.8,2.9,1.1,4.7,4.1,3.8c2.3-0.6,4.4-1.7,6.5-2.8c10.6-5.6,21.2-11.3,31.8-16.8
	c9.4-4.9,18.3-4.1,26.6,2.4c5.3,4.1,10.6,8.4,16,12.5c13.8,10.5,27.6,21.1,41.6,31.4C211.8,263.8,215.3,264.7,216.9,265.5z
	 M346.4,192.9c-11.6-0.1-22.3,2.8-32.1,8.9c-15.5,9.8-30.9,19.8-46.4,29.7c-3.7,2.4-5.5,5.8-5.3,10.1c0.4,7.5,3,14.1,7.8,19.9
	c3.4,4.1,7.1,5.3,12,3c4.5-2.1,8.9-4.6,12.8-7.7c16.1-12.9,32-26,47.8-39.2c8.7-7.2,17.9-8.3,27.8-3.1c9,4.7,17.8,9.6,26.7,14.4
	c2.4,1.3,4.9,2.7,7.5,3.4c1.6,0.5,4.2,0.4,5.2-0.6c0.9-1,0.9-3.6,0.4-5.2c-1.8-5.7-4.7-10.7-10.3-13.7c-4.4-2.4-8.4-5.4-12.8-7.8
	C374.8,197.8,361.2,193.4,346.4,192.9z M188,321c5.1-4.8,10-9.4,15-13.8c2.9-2.5,3.6-5.2,2.1-8.6c-3.8-8.9-9.6-16-17.9-21.1
	c-15.8-9.6-40.5-7.5-54.6,4.6c-4.7,4.1-7.8,9.2-8.8,15.3c-1.3,8-5.5,14-12.1,18.6c-2.4,1.7-4.8,3.7-6.8,5.9c-1,1.1-1.3,3-2,4.9
	c9.4-3.1,17.8-5.8,26.2-8.5c14.2-4.7,28.5-5.8,42.6-0.1c8.3,3.3,15.9,8.2,23.8,12.4c2.2,1.2,4.3,2.5,6.5,3.8
	c0.3-0.4,0.6-0.8,0.8-1.2C198.1,329.2,193.3,325.2,188,321z M391.4,324.6c0.3-0.4,0.6-0.8,0.9-1.1c-1.1-1.3-2-2.8-3.4-3.7
	c-3.8-2.6-7.8-4.9-11.7-7.4c-3.1-2-4.9-4.7-4.4-8.4c1-9-2.6-16-9-22c-21.9-20.6-58.1-13.4-71,14.1c-2.4,5.1-2.1,6.9,2,10.9
	c3.6,3.6,7.4,7,11.2,10.6c-3.1,3.5-6.1,6.7-8.8,10.1c-1.2,1.5-1.9,3.3-2.8,5c2.1-0.5,4.4-0.6,6.1-1.6c5.7-3.3,11.1-7.2,16.9-10.4
	c12.7-7.2,26.3-10.7,41-9c10.6,1.2,19.8,5.7,28.9,10.9C388.6,323.4,390,324,391.4,324.6z M67.3,245.1c0.1,0.7,0.2,1.3,0.2,2
	c-2.9,1.4-5.7,3-8.6,4.1c-5.5,2.1-11.1,3.9-16.5,6c-1.5,0.6-3.8,1.9-3.9,3c-0.4,6.2-0.2,12.5-0.2,19.3c10.7-7.6,20.7-14.8,30.8-21.8
	c4.7-3.3,6.6-7.5,5.8-13.2c-1.6-11.5-2.8-23-4.7-34.5c-2.4-14.3-17.6-27-32.1-26.9c0,8.1,0,16.1,0,24.2c0,4,1.9,6.5,5.7,7.7
	c4.9,1.5,9.8,3.1,14.6,4.8c1,0.3,1.6,1.5,2.4,2.2c-1,0.7-1.9,1.7-3,1.9c-4.4,0.8-9,0.9-13.3,2c-2.3,0.6-5.7,2.4-6,4.1
	c-0.8,4.8-0.3,9.8-0.3,15c5.2,0,10,0,14.9,0C57.8,245.1,62.5,245.1,67.3,245.1z M451.7,274.3c0-5.8-0.1-10.6,0-15.5
	c0.1-3.2-1.2-5-4.2-6.2c-6.2-2.3-12.3-4.8-18.4-7.3c-1-0.4-1.7-1.7-2.6-2.5c1-0.5,2-1.3,3.1-1.4c5.9-0.4,11.7-0.7,17.6-0.8
	c2.8-0.1,4.2-1.3,4.2-4.1c0-2.6,0.1-5.2,0.1-7.9c0.1-5.7-0.2-6-5.9-6.8c-4.5-0.7-8.9-1.6-13.3-2.4c-0.1-0.5-0.2-1-0.3-1.5
	c1.7-1,3.4-2.2,5.2-2.9c3.4-1.3,6.8-2.4,10.2-3.6c2.8-1,4.2-2.7,4.2-5.8c-0.1-6.7,0.1-13.5,0.1-20.2c0-1.5-0.1-3.1-0.3-5.9
	c-4.2,2.1-8,3.3-10.9,5.5c-3.8,2.9-7,6.7-10.6,10c-3.8,3.6-5.6,8.1-6.2,13.3c-1.4,11.7-2.8,23.3-4.2,35c-0.7,5.3,1,9.5,5.5,12.6
	c7.2,5,14.2,10.2,21.4,15.2C447.8,272,449.4,272.8,451.7,274.3z M236.5,290.3c-0.5-0.1-1-0.1-1.6-0.2c-0.6,2.4-1.3,4.9-1.6,7.3
	c-0.9,6.7-1.8,13.4-2.3,20.1c-0.5,7.7-3.6,13.8-9.5,18.7c-4.5,3.7-8.8,7.7-13.1,11.8c-9.5,9-11.4,19.5-6,31.8
	c3.6-0.5,4.4-2.8,3.6-5.9c-2.7-10.1,0.9-17.7,8.8-24c5-4,10.1-7.9,14.3-12.6c3-3.3,5.8-7.6,6.5-11.8c1.4-9.2,1.5-18.6,2-27.9
	C237.5,295.1,236.8,292.7,236.5,290.3z M267.9,291.1c-0.5,0-1-0.1-1.5-0.1c-0.4,1.6-1.2,3.2-1.2,4.8c0,7.6,0.3,15.2,0.4,22.9
	c0.1,9.5,4,16.6,11.8,22.1c5.1,3.6,9.7,7.9,14.1,12.3c5.2,5.1,7.2,11.5,5.8,18.9c-0.4,2.2,0.4,4.6,0.7,7c1.3-0.5,1.7-1,2-1.5
	c5.1-10.6,2.9-22.4-5.9-30.4c-4-3.6-8.2-7-12.4-10.3c-6-4.8-9.4-10.9-10.1-18.5c-0.3-2.9-0.6-5.7-1-8.6
	C269.6,303.4,268.7,297.2,267.9,291.1z M400.8,306.7c9.2-8.1,10.2-18,7.4-28.7c-2.4-9.3-10.1-16.9-18-17.7
	C398,274.8,405.1,289.4,400.8,306.7z M103.4,262.6c-9.9,1.5-18.1,10.6-19.5,21.1c-1.5,11.4,2.2,21.5,9.1,24.3
	C89.7,291.5,92.8,276.3,103.4,262.6z M268.3,655.3c-14.1-11.2-40.3-8-44.5,0C238.4,655.3,253,655.3,268.3,655.3z"/>
<path d="M100.4,344.9c-0.4,1.3-0.9,2.6-1.3,4c-2.9,8.9-6.6,17.6-8.6,26.6c-2.3,10.3,1.6,19.3,10,25.8c14.6,11.3,30.4,14.1,47.7,6.1
	c14.2-6.6,28.6-12.5,42.9-18.7c7.4-3.2,15-3.8,22.6-1.1c5.1,1.8,9.2,4.8,12.4,9.3c11.3,16.1,30.7,16.6,43,1.2
	c0.7-0.9,1.4-1.8,2.1-2.6c9.3-10.9,19-14.1,32.4-9c15,5.7,29.8,12.3,44.5,18.7c8,3.5,16.1,5.9,25,4.9c13.7-1.5,28.6-13.8,31.3-26.1
	c1.4-6.4,0.6-12.7-1.4-18.8c-2.3-7.2-5-14.3-7.7-22c1.1,0.6,2,0.9,2.6,1.5c7.1,5.7,14.7,10.9,21.1,17.4c23.9,24.3,26.6,58.3,8,86.8
	c-8,12.3-18.7,19.5-33.2,20.9c-20.9,2-41.8,4.9-62.8,3.2c-10.2-0.8-20.3-2.5-30.4-4.1c-6.6-1.1-12.5-0.4-18.4,2.9
	c-3.5,1.9-7.7,3.3-11.7,3.4c-14,0.4-28,0.5-42,0.1c-4.4-0.1-9.1-1.6-13.2-3.5c-5.6-2.7-11-3.6-17-2.4c-34.8,7.1-69.8,6.8-104.7,1.2
	c-14.2-2.3-24.5-10.1-31.4-22.5c-15.3-27.4-12.6-55,8.6-78.2c8.1-8.9,17.9-16.3,26.9-24.4c0.5-0.5,1.2-0.8,1.7-1.2
	C99.7,344.5,100,344.7,100.4,344.9z"/>
<path d="M452,38c0,35,0,69.6,0,105.2c-1.3-1.7-2.2-2.8-3-3.9c-10.9-16.1-23-31.1-38-43.7c-27.9-23.5-60.2-37.5-95.7-44.7
	c-29.7-6-59.6-8.7-89.8-6c-53.2,4.7-102,21.4-144.3,54.7C64.2,113,51,129.7,41,148.9c-0.7,1.3-1.4,2.5-2.6,4.8
	c0-39.3,0-77.4,0-115.8C176.3,38,313.9,38,452,38z"/>
<path d="M38.2,656c0-72.8,0-145,0-217.3c0.3,0,0.6-0.2,0.7-0.1c17.6,18.4,32.4,38.5,38.8,63.5c2.2,8.4,2.9,17.2,4.2,25.8
	c4.3,28.8,17.7,52.9,38.1,73.1c8.3,8.2,17.4,15.8,26.6,23c10.1,7.9,16.9,18.3,23.6,28.8c1.3,2.1,0.5,3-1.7,3c-0.7,0-1.5,0-2.2,0
	c-41.4,0-82.7,0-124.1,0C41,656,39.8,656,38.2,656z"/>
<path d="M451.9,437.8c0,72.1,0,144.3,0,216.7c-42.2,0-84.2,0-126.8,0c4.5-9.7,9-18.9,17.1-25.9c10.5-8.9,20.9-17.8,31.1-27.1
	c23.6-21.5,37.2-48,40.1-80c2.2-24.7,11.8-46.8,25.5-67.2c3.9-5.8,8.1-11.3,12.2-17C451.4,437.5,451.6,437.6,451.9,437.8z"/>
<path d="M160.7,480.3c11.8-1.4,22.7-2.8,33.5-3.9c1.6-0.2,3.4,0.6,5,1.2c33.1,12.1,66.1,12.7,99.1-0.3c1.7-0.7,3.7-1.3,5.4-1.1
	c10.8,0.8,21.5,1.9,33,2.9c-20.7,30.6-49,45.3-84.7,46.2C214.2,526.2,183.7,511.8,160.7,480.3z"/>
<path d="M216.9,265.5c-1.6-0.8-5.1-1.7-7.8-3.7c-14-10.3-27.8-20.9-41.6-31.4c-5.4-4.1-10.6-8.3-16-12.5c-8.4-6.5-17.3-7.3-26.6-2.4
	c-10.6,5.5-21.2,11.2-31.8,16.8c-2.1,1.1-4.3,2.2-6.5,2.8c-3,0.8-4.9-0.9-4.1-3.8c1.5-5.3,3.3-10.7,7.9-14.1
	c14.4-10.7,30-18.9,47.8-22.3c18.5-3.6,35.5,0.3,50.9,11.2c8.2,5.7,16.2,11.7,24.6,17.1c4.5,2.9,9.5,5,14.3,7.3
	c4.7,2.1,8.4,9.5,6.6,14.2c-2.1,5.3-4.2,10.6-6.9,15.7C225.9,263.6,222.7,265.5,216.9,265.5z"/>
<path d="M346.4,192.9c14.8,0.5,28.4,5,41.3,12.1c4.4,2.4,8.4,5.4,12.8,7.8c5.5,3.1,8.5,8,10.3,13.7c0.5,1.6,0.6,4.2-0.4,5.2
	c-1,1-3.6,1-5.2,0.6c-2.6-0.7-5-2.1-7.5-3.4c-8.9-4.8-17.7-9.7-26.7-14.4c-9.9-5.1-19.1-4.1-27.8,3.1
	c-15.8,13.2-31.7,26.3-47.8,39.2c-3.8,3.1-8.3,5.6-12.8,7.7c-4.9,2.3-8.6,1.1-12-3c-4.8-5.7-7.4-12.4-7.8-19.9
	c-0.2-4.3,1.6-7.8,5.3-10.1c15.4-9.9,30.8-19.9,46.4-29.7C324.1,195.7,334.8,192.8,346.4,192.9z"/>
<path d="M188,321c5.3,4.3,10.1,8.2,14.9,12.1c-0.3,0.4-0.6,0.8-0.8,1.2c-2.2-1.3-4.3-2.6-6.5-3.8c-7.9-4.2-15.5-9.1-23.8-12.4
	c-14-5.7-28.4-4.5-42.6,0.1c-8.4,2.8-16.8,5.5-26.2,8.5c0.8-1.9,1-3.8,2-4.9c2-2.2,4.3-4.1,6.8-5.9c6.5-4.6,10.7-10.6,12.1-18.6
	c1-6.1,4.1-11.2,8.8-15.3c14.1-12.1,38.7-14.2,54.6-4.6c8.3,5,14.1,12.2,17.9,21.1c1.5,3.5,0.8,6.1-2.1,8.6
	C198,311.5,193.2,316.2,188,321z"/>
<path d="M391.4,324.6c-1.4-0.7-2.8-1.3-4.1-2c-9-5.2-18.3-9.7-28.9-10.9c-14.7-1.7-28.3,1.8-41,9c-5.8,3.2-11.2,7.1-16.9,10.4
	c-1.8,1-4.1,1.1-6.1,1.6c0.9-1.7,1.6-3.6,2.8-5c2.7-3.4,5.7-6.6,8.8-10.1c-3.8-3.6-7.6-7-11.2-10.6c-4.1-4-4.4-5.8-2-10.9
	c12.9-27.5,49.1-34.7,71-14.1c6.4,6,9.9,13,9,22c-0.4,3.8,1.3,6.5,4.4,8.4c3.9,2.5,7.9,4.8,11.7,7.4c1.3,0.9,2.3,2.5,3.4,3.7
	C392,323.9,391.7,324.3,391.4,324.6z"/>
<path d="M67.3,245.1c-4.7,0-9.5,0-14.2,0c-4.9,0-9.7,0-14.9,0c0-5.2-0.5-10.2,0.3-15c0.3-1.7,3.7-3.5,6-4.1c4.3-1.1,8.9-1.3,13.3-2
	c1.1-0.2,2-1.3,3-1.9c-0.8-0.8-1.5-1.9-2.4-2.2c-4.8-1.7-9.7-3.3-14.6-4.8c-3.8-1.2-5.8-3.7-5.7-7.7c0-8.1,0-16.1,0-24.2
	c14.6,0,29.8,12.6,32.1,26.9c1.9,11.4,3.1,23,4.7,34.5c0.8,5.7-1.1,9.9-5.8,13.2c-10.1,7-20.2,14.3-30.8,21.8c0-6.8-0.2-13,0.2-19.3
	c0.1-1.1,2.4-2.4,3.9-3c5.5-2.1,11.1-3.9,16.5-6c3-1.1,5.7-2.7,8.6-4.1C67.4,246.4,67.3,245.7,67.3,245.1z"/>
<path d="M451.7,274.3c-2.4-1.5-3.9-2.3-5.3-3.3c-7.1-5.1-14.2-10.2-21.4-15.2c-4.5-3.1-6.2-7.3-5.5-12.6c1.4-11.6,2.8-23.3,4.2-35
	c0.6-5.1,2.4-9.6,6.2-13.3c3.5-3.3,6.7-7.1,10.6-10c3-2.2,6.7-3.4,10.9-5.5c0.1,2.8,0.3,4.3,0.3,5.9c0,6.7-0.2,13.5-0.1,20.2
	c0,3.2-1.4,4.9-4.2,5.8c-3.4,1.2-6.9,2.2-10.2,3.6c-1.8,0.7-3.5,1.9-5.2,2.9c0.1,0.5,0.2,1,0.3,1.5c4.4,0.8,8.9,1.8,13.3,2.4
	c5.7,0.9,6,1.1,5.9,6.8c0,2.6-0.1,5.2-0.1,7.9c0,2.8-1.4,4-4.2,4.1c-5.9,0.2-11.7,0.4-17.6,0.8c-1,0.1-2,0.9-3.1,1.4
	c0.8,0.9,1.5,2.1,2.6,2.5c6.1,2.6,12.2,5.1,18.4,7.3c3.1,1.1,4.3,3,4.2,6.2C451.6,263.6,451.7,268.4,451.7,274.3z"/>
<path d="M236.5,290.3c0.3,2.4,1,4.8,0.9,7.2c-0.4,9.3-0.5,18.7-2,27.9c-0.7,4.2-3.5,8.5-6.5,11.8c-4.2,4.7-9.3,8.7-14.3,12.6
	c-7.9,6.3-11.4,14-8.8,24c0.8,3.1,0,5.4-3.6,5.9c-5.4-12.2-3.5-22.8,6-31.8c4.3-4,8.6-8,13.1-11.8c6-4.9,9-11,9.5-18.7
	c0.5-6.7,1.4-13.4,2.3-20.1c0.3-2.5,1.1-4.9,1.6-7.3C235.4,290.2,236,290.2,236.5,290.3z"/>
<path d="M267.9,291.1c0.9,6.1,1.8,12.3,2.6,18.4c0.4,2.8,0.7,5.7,1,8.6c0.7,7.6,4.1,13.7,10.1,18.5c4.2,3.3,8.4,6.7,12.4,10.3
	c8.8,8,11,19.9,5.9,30.4c-0.3,0.5-0.6,1-2,1.5c-0.3-2.3-1.1-4.8-0.7-7c1.3-7.4-0.7-13.7-5.8-18.9c-4.4-4.4-9-8.7-14.1-12.3
	c-7.8-5.5-11.7-12.7-11.8-22.1c-0.1-7.6-0.4-15.2-0.4-22.9c0-1.6,0.8-3.2,1.2-4.8C266.9,291,267.4,291,267.9,291.1z"/>
<path d="M400.8,306.7c4.3-17.3-2.8-31.9-10.5-46.5c7.9,0.9,15.5,8.4,18,17.7C411,288.7,410,298.6,400.8,306.7z"/>
<path d="M103.4,262.6c-10.6,13.7-13.7,28.8-10.4,45.5c-6.9-2.8-10.5-12.9-9.1-24.3C85.3,273.2,93.5,264.1,103.4,262.6z"/>
<path d="M268.3,655.3c-15.3,0-29.8,0-44.5,0C228,647.3,254.2,644,268.3,655.3z"/>
</svg>
