<?xml version="1.0" encoding="utf-8"?>
<!-- Generator: Adobe Illustrator 19.0.0, SVG Export Plug-In . SVG Version: 6.00 Build 0)  -->
<svg version="1.1" xmlns="http://www.w3.org/2000/svg" xmlns:xlink="http://www.w3.org/1999/xlink" x="0px" y="0px"
    viewBox="0 0 148.3 112.1" style="enable-background:new 0 0 148.3 112.1;" xml:space="preserve">
<style type="text/css">
   .st0{fill:#353535;}
   .st1{fill:#FFFFFF;}
   .st2{display:none;}
   .st3{display:inline;fill:#353535;}
</style>
<g id="Orejas">
   <circle class="st0" cx="124.7" cy="60.1" r="23.7"/>
   <path class="st1" d="M125.3,41.5c-2.9,0-5.6,0.7-8,2c1.8,0,4.4,0.1,7.6,0.8c2.4,0.6,4.8,1.6,6.6,3.3c0.9,0.8,1.8,1.8,2.3,3
      c0.3,0.5,0.6,1,0.8,1.6c0.4,1.2-0.2,1-0.9,0.3c-1.4-1.6-3.3-2.5-5.4-3c-1.5-0.3-4.1-0.7-5.2,0.8c-1.1,1.5,0.8,3.4,1.1,8.2
      c0.1,2.5-0.4,4.3-0.8,5.7c-1.1,3.6-3.2,6.8-6.1,9.2c2.4,1.3,5.1,2,8,2c9.3,0,16.9-7.6,16.9-16.9S134.6,41.5,125.3,41.5z"/>
   <circle class="st0" cx="23.7" cy="60.1" r="23.7"/>
   <path class="st1" d="M23,41.5c2.9,0,5.6,0.7,8,2c-1.8,0-4.4,0.1-7.6,0.8c-2.4,0.6-4.8,1.6-6.6,3.3c-0.9,0.8-1.8,1.8-2.3,3
      c-0.3,0.5-0.6,1-0.8,1.6c-0.4,1.2,0.2,1,0.9,0.3c1.4-1.6,3.3-2.5,5.4-3c1.5-0.3,4.1-0.7,5.2,0.8c1.1,1.5-0.8,3.4-1.1,8.2
      c-0.1,2.5,0.4,4.3,0.8,5.7c1.1,3.6,3.2,6.8,6.1,9.2c-2.4,1.3-5.1,2-8,2c-9.3,0-16.9-7.6-16.9-16.9S13.7,41.5,23,41.5z"/>
</g>
<g id="Cabeza_1_">
   <path class="st0" d="M84.2,0C64.4,0,48.4,21.9,48.4,48.9s16,48.9,35.8,48.9V10.3C83.5,8.8,82.7,7.4,82,6c0-0.1,0-0.2,0-0.3
      c0-0.1,0-0.3,0-0.4c0-0.3,0.1-0.6,0.2-0.9c0.2-0.8,0.6-1.6,0.9-2.3c0.2-0.4,0.4-0.7,0.5-1.1c0.1-0.2,0.2-0.3,0.3-0.5
      C84,0.4,84.2,0,84.2,0z"/>
   <circle class="st0" cx="74.7" cy="58.6" r="53.5"/>
</g>
<g id="Cara">
   <path class="st1" d="M118.2,50.7c0-12.8-10.4-23.3-23.3-23.3c-8.6,0-16.2,4.7-20.2,11.7c-4-7-11.5-11.7-20.2-11.7
      c-12.8,0-23.3,10.4-23.3,23.3c0,7.2,3.3,13.7,8.5,18c0.1,4.8,1.4,10.4,3.5,14.8c2.8,5.9,6.8,9.6,9.2,11.5c-0.2-1.7-0.4-3.2-0.6-4.7
      c4.7,7.4,13.2,12.4,22.9,12.4c9.6,0,18.1-4.9,22.8-12.1c-0.1,1.4-0.3,2.9-0.5,4.5c2.4-1.9,6.4-5.6,9.2-11.5
      c2.1-4.4,3.4-10,3.5-14.9C114.9,64.4,118.2,57.9,118.2,50.7z"/>
</g>
<g id="Nariz">
   <g id="_x30_1">
      <circle class="st0" cx="70.5" cy="76.1" r="3.7"/>
      <circle class="st0" cx="79.1" cy="76.1" r="3.7"/>
   </g>
   <g id="_x30_2" class="st2">
      <path class="st3" d="M78.8,74.5c2.2,0,3.9,1.7,4,3.9c0-0.1,0-0.1,0-0.2c0-4.4-3.6-8-8-8s-8,3.6-8,8c0,0.1,0,0.1,0,0.2
         c0.1-2.1,1.8-3.9,4-3.9c2.2,0,4,1.8,4,4h0C74.9,76.2,76.6,74.5,78.8,74.5z"/>
   </g>
</g>
<g id="Capa_4">
   <path class="st0" d="M120.1,40.3c0-0.6,0-0.4,0-0.7c0,0,0-0.3,0-0.6c0-0.3-0.2-0.4-0.5-0.5c-0.2-0.1-0.5,0-0.7,0
      c-0.1,0-0.3,0-0.4-0.1c-0.5-0.1-0.9-0.2-1.4-0.3c0,0-0.7-0.1-2.1-0.4c-1.7-0.3-1.9-0.4-3.5-0.7c-2.9-0.6-2.9-0.6-3.8-0.8
      c-7.9-1.2-16.1-0.4-23.8,1.5c-2.1,0.5-4.1,1-6.3,1.1c-1.4,0-2.8,0-4.2,0c-1.1,0-2.1,0-3.2-0.2c-1.1-0.2-2.1-0.4-3.2-0.7
      c-0.3-0.1-0.7-0.2-1-0.3c-7.7-1.9-16-2.7-23.8-1.5c-1,0.2-0.9,0.2-3.8,0.8c-1.6,0.3-1.8,0.3-3.5,0.7c-1.4,0.3-2.1,0.4-2.1,0.4
      c-0.4,0.1-0.8,0.2-1.2,0.3c-0.4,0.1-0.7,0.1-1.1,0.1c-0.3,0-0.6,0.2-0.7,0.5c0,0.3,0,0.6,0,0.6c0,0.3,0,0,0,0.7c0,0.3,0,0.4,0,0.6
      c0,0.2,0,0.3,0,0.6c0,0.3,0,0.6,0,0.9c0,0.4,0,0.6,0,0.8c0,0.1,0,0.2,0,0.3c0,0.2,0,0.3,0,0.4c0,0.5,0,0.7,0,0.9
      c0,0.2,0.1,0.3,0.2,0.4c0.1,0.2,0.3,0.2,0.4,0.3c0.3,0.1,0.5,0,0.9,0c0.2,0,0.4,0.1,0.5,0.1c0.1,0.6,0.7,3.9,1.2,6.4
      c0.2,0.9,0.4,1.7,0.4,1.7c0.1,0.6,0.3,1.4,0.6,2.4c0.3,1.1,0.5,1.9,0.7,2.5c0.5,1.6,1,3.6,2.2,4.9c1.1,1.3,2.6,2.2,4.2,2.8
      c1.7,0.7,3.4,1.1,5.2,1.3c1.1,0.1,2.2,0.2,3.3,0.2c5.6,0.1,11.5-1.5,15.4-5.8c2-2.2,2.8-4.6,4.3-8c0.6-1.4,1.1-2.6,1.4-3.3
      c0.8-1.9,2.2-4.8,4.4-4.8c2.2,0,3.6,2.8,4.4,4.8c0.3,0.8,0.8,1.9,1.4,3.3c1.5,3.4,2.3,5.8,4.3,8c3.9,4.3,9.8,5.9,15.4,5.8
      c1.1,0,2.2-0.1,3.3-0.2c1.8-0.2,3.5-0.6,5.2-1.3c1.6-0.6,3.1-1.5,4.2-2.8c1.1-1.3,1.7-3.2,2.2-4.9c0.2-0.6,0.4-1.4,0.7-2.5
      c0.3-1,0.4-1.9,0.6-2.4c0,0,0.2-0.8,0.4-1.7c0.5-2.5,1.1-5.8,1.2-6.4c0.1,0,0.3-0.1,0.5-0.1c0.4,0,0.6,0.1,0.9,0
      c0.1,0,0.3-0.1,0.4-0.3c0.1-0.1,0.1-0.3,0.2-0.4c0-0.2,0-0.4,0-0.9c0-0.1,0-0.2,0-0.4c0-0.1,0-0.3,0-0.3c0-0.3,0-0.4,0-0.8
      c0-0.3,0-0.6,0-0.9c0-0.4,0-0.4,0-0.6C120.1,40.6,120.1,40.6,120.1,40.3z M67.9,47.3c0,1.6-0.3,3-0.6,4.3c-0.2,0.9-0.3,1.6-0.6,2.5
      c-0.2,0.6-0.8,2.5-2.1,4.6c-0.5,0.8-1,1.6-1.9,2.5c-4.2,4.3-10.2,5.7-16,4.9c-1.2-0.2-2.4-0.5-3.5-0.9c-2.1-0.8-3.9-2.1-5.2-3.9
      c-0.7-1-1-1.8-1.5-2.8c-0.7-1.5-1-2.7-1.2-3.7c-0.5-1.8-0.6-3.2-0.7-3.6c-0.1-1.3-0.3-2.7-0.1-4.6c0.4-2.9,1.6-5.2,4.2-6.8
      c1.7-1.1,3.2-1.3,5.2-1.7c2.4-0.4,4.6-0.4,6.7-0.3c1,0,2,0.1,2,0.1c0.7,0,1.4,0.1,2.2,0.1c1.1,0.1,1.8,0.2,2.3,0.2
      c0,0,2.3,0.3,5.4,1.1c1.6,0.4,3.1,1.3,4.2,2.6C67.9,43.3,67.9,45.5,67.9,47.3z M115,51.2c0,0.3-0.2,1.7-0.7,3.6
      c-0.2,0.9-0.5,2.1-1.2,3.7c-0.4,1-0.8,1.8-1.5,2.8c-1.3,1.8-3.2,3.1-5.2,3.9c-1.1,0.4-2.3,0.7-3.5,0.9c-5.9,0.8-11.8-0.6-16-4.9
      c-0.9-0.9-1.3-1.6-1.9-2.5c-1.3-2.1-2-4-2.1-4.6c-0.3-0.9-0.4-1.6-0.6-2.5c-0.3-1.4-0.5-2.7-0.6-4.3c0-1.8,0-4,1.3-5.4
      c1.1-1.3,2.6-2.1,4.2-2.6c3.1-0.9,5.4-1.1,5.4-1.1c0.4-0.1,1.2-0.1,2.3-0.2c0.8-0.1,1.5-0.1,2.2-0.1c0,0,1,0,2-0.1
      c2.1,0,4.2-0.1,6.7,0.3c2,0.4,3.5,0.6,5.2,1.7c2.5,1.6,3.8,3.9,4.2,6.8C115.4,48.5,115.2,49.9,115,51.2z"/>
</g>
<g id="Capa_10">
   <circle class="st0" cx="56.1" cy="51.9" r="5.3"/>
   <circle class="st0" cx="94.5" cy="51.9" r="5.3"/>
</g>
</svg>
